# xmcd
#
# Track frame offsets:
# 182
# 13945
# 29640
# 47655
# 62922
# 80472
# 94240
# 112385
# 128547
# 143555
#
# Disc length: 2123 seconds
#
# Revision: 1
# Processed by: cddbd v1.4PL0 Copyright (c) Steve Scherf et al.
# Submitted via: Axialis_AX_CDPlayer 2.6
#
DISCID=8b08490a
DTITLE=John Berry - John Berry
DYEAR=1900
DGENRE=
TTITLE0=Somebody
TTITLE1=Kiss Me In The Car
TTITLE2=More Sorry Than You'll Eve Know
TTITLE3=A Mind Of Her Own
TTITLE4=Your Love Amaze Me
TTITLE5=More Than Just A Little
TTITLE6=You And Only You
TTITLE7=Destiny
TTITLE8=What's In It For Me
TTITLE9=When Love Dies
EXTD=
EXTT0=
EXTT1=
EXTT2=
EXTT3=
EXTT4=
EXTT5=
EXTT6=
EXTT7=
EXTT8=
EXTT9=
PLAYORDER=
